Coordinates
version=1
nRows=14
nColumns=40
inDegrees=yes

Units are S.I. units (second, meters, Newtons, ...)
Angles are in degrees.

endheader
time	pelvis_tilt	pelvis_list	pelvis_rotation	pelvis_tx	pelvis_ty	pelvis_tz	hip_flexion_r	hip_adduction_r	hip_rotation_r	knee_angle_r	knee_angle_r_beta	ankle_angle_r	subtalar_angle_r	mtp_angle_r	hip_flexion_l	hip_adduction_l	hip_rotation_l	knee_angle_l	knee_angle_l_beta	ankle_angle_l	subtalar_angle_l	mtp_angle_l	lumbar_extension	lumbar_bending	lumbar_rotation	arm_flex_r	arm_add_r	arm_rot_r	elbow_flex_r	pro_sup_r	wrist_flex_r	wrist_dev_r	arm_flex_l	arm_add_l	arm_rot_l	elbow_flex_l	pro_sup_l	wrist_flex_l	wrist_dev_l
      3.57000000	     -3.29002964	     -5.04955029	      1.96378339	      0.81638536	      0.93197903	      0.46498401	     12.11818779	      3.46974528	    -16.93370779	     14.30919537	     14.30919537	      7.79572585	      1.79210650	     -6.12226690	     28.08010860	    -12.13983767	     -1.12660105	     62.65631619	     62.65631619	     12.87023829	    -18.97633651	     14.99701647	     -8.78213891	      7.02709460	      4.91486010	     29.33666505	    -19.50364173	      0.71625874	     99.41015645	     44.37323784	      0.00000000	      0.00000000	     27.70433418	    -11.87244334	     11.11662348	     82.90393787	     46.10629623	      0.00000000	      0.00000000
      3.58207143	     -3.45826929	     -4.88628388	      2.38728146	      0.81506486	      0.93236729	      0.46510886	     11.63172693	      3.37246282	    -17.07218524	     13.90194924	     13.90194924	      8.03375450	      1.68381168	     -6.16932017	     29.28531731	    -11.73464814	     -0.93615261	     60.72575664	     60.72575664	     12.92087478	    -18.98373976	     15.22756707	     -8.74865418	      6.76847706	      4.85467643	     32.15537039	    -19.67281106	      0.48091194	    100.90688140	     44.35226568	      0.00000000	      0.00000000	     25.85232013	    -11.82014222	     11.64741723	     81.46373643	     46.05124951	      0.00000000	      0.00000000
      3.59414286	     -3.52999883	     -4.78264463	      2.84769150	      0.81392518	      0.93288928	      0.46522033	     10.92881150	      3.38926181	    -17.29010608	     13.26218809	     13.26218809	      8.12665885	      1.51564911	     -6.21382278	     30.19632583	    -11.35444195	     -0.73490314	     58.50444037	     58.50444037	     12.90505024	    -18.97186929	     15.47146409	     -8.76499973	      6.65538765	      4.61354273	     34.97397809	    -19.69633408	      0.88108370	    102.65173312	     44.31185349	      0.00000000	      0.00000000	     24.22668597	    -11.83191731	     12.18956334	     78.94847623	     45.99820249	      0.00000000	      0.00000000
      3.60621429	     -3.63541367	     -4.66092469	      3.28087419	      0.81267999	      0.93326339	      0.46527353	     10.31733690	      3.37640284	    -17.31366545	     12.72519790	     12.72519790	      8.32944830	      1.34383931	     -6.30595238	     31.00199316	    -10.89357412	     -0.51569272	     56.04320813	     56.04320813	     12.74153577	    -18.92466510	     15.67732048	     -8.81394105	      6.50158764	      4.54379814	     37.81564944	    -19.92683090	      1.03119442	    103.91160863	     44.29487797	      0.00000000	      0.00000000	     22.78355833	    -11.64518831	     12.71541158	     76.55054254	     45.94796886	      0.00000000	      0.00000000
      3.61828571	     -3.86737368	     -4.52258194	      3.66728043	      0.81141001	      0.93327657	      0.46527061	      9.94796827	      3.30413859	    -17.37547981	     12.37828535	     12.37828535	      8.61038285	      1.15233572	     -6.35118868	     31.81342941	    -10.37288938	     -0.32188460	     53.40250697	     53.40250697	     12.57732295	    -18.85026840	     15.93380818	     -8.74602344	      6.26774823	      4.67134195	     40.51051821	    -20.34488843	      0.66943234	    104.78109632	     44.29566175	      0.00000000	      0.00000000	     21.19162881	    -11.44800789	     13.15697510	     75.18352139	     45.89590287	      0.00000000	      0.00000000
      3.63035714	     -3.92944424	     -4.44671851	      4.08353467	      0.81021762	      0.93355314	      0.46522994	      9.26951936	      3.36317196	    -17.44163776	     11.76698012	     11.76698012	      8.69260242	      0.90705557	     -6.40620423	     32.26702629	     -9.86710878	     -0.06775392	     50.42948925	     50.42948925	     12.25329858	    -18.76073100	     15.82136379	     -8.79821593	      6.19014394	      4.42300496	     43.43452615	    -20.23033706	      1.21467292	    105.72382361	     44.28043618	      0.00000000	      0.00000000	     20.36939370	    -11.30388318	     13.69358359	     71.42352722	     45.83363394	      0.00000000	      0.00000000
      3.64242857	     -4.04089605	     -4.32270201	      4.46217063	      0.80895264	      0.93360606	      0.46502268	      8.83055384	      3.29166523	    -17.47331400	     11.51076582	     11.51076582	      8.87980192	      0.64718475	     -6.47648477	     32.63577294	     -9.23146764	      0.27432326	     47.26844102	     47.26844102	     11.93118473	    -18.56762341	     15.76804332	     -8.89771224	      5.99573430	      4.39826212	     46.09698834	    -20.41087662	      1.13302427	    106.41448208	     44.28543852	      0.00000000	      0.00000000	     19.21347321	    -11.09240554	     14.18943322	     69.12581148	     45.77883092	      0.00000000	      0.00000000
      3.65450000	     -4.31749718	     -4.25496076	      4.82376129	      0.80773333	      0.93312265	      0.46482280	      8.58145918	      3.26899184	    -17.54426422	     11.29040407	     11.29040407	      9.22699622	      0.40544520	     -6.55689767	     33.17638959	     -8.63168419	      0.63601288	     44.12747528	     44.12747528	     11.78619995	    -18.10694524	     15.81630469	     -8.76424633	      5.79472145	      4.49948513	     48.53135330	    -20.71753078	      0.84631589	    106.95444071	     44.29389756	      0.00000000	      0.00000000	     17.98129784	    -10.99307748	     14.56029834	     67.65722204	     45.73119430	      0.00000000	      0.00000000
      3.66657143	     -4.42600605	     -4.21992041	      5.20953814	      0.80655429	      0.93288556	      0.46446794	      8.16626652	      3.28626664	    -17.59846386	     11.09594048	     11.09594048	      9.49919405	      0.08111525	     -6.68050325	     33.23057524	     -8.05573849	      1.00077931	     40.42340011	     40.42340011	     10.25665792	    -17.80802073	     12.53019980	     -8.73638320	      5.77137221	      4.73793141	     50.81732293	    -21.06377759	      1.06398533	    107.28164517	     44.36373523	      0.00000000	      0.00000000	     18.01496139	    -10.42030289	     15.55510626	     62.84839566	     45.70698208	      0.00000000	      0.00000000
      3.67864286	     -4.59373041	     -4.14179816	      5.54680349	      0.80538321	      0.93242378	      0.46404193	      7.89567462	      3.21494108	    -17.64994671	     11.08002379	     11.08002379	      9.87951340	     -0.19540267	     -6.75463514	     33.40778326	     -7.42301560	      1.39461895	     37.02335441	     37.02335441	     10.16002059	    -16.81028870	     12.63115830	     -8.79367403	      5.60093732	      4.64991108	     53.10614860	    -21.04284445	      0.89605819	    107.69673954	     44.37428575	      0.00000000	      0.00000000	     16.92905061	    -10.50365639	     15.91800778	     61.50001939	     45.66390774	      0.00000000	      0.00000000
      3.69071429	     -4.88497156	     -4.26329756	      5.93984832	      0.80422933	      0.93153700	      0.46356951	      7.79920839	      3.33243299	    -17.81732249	     11.10542527	     11.10542527	     10.23740698	     -0.45897094	     -6.84735997	     33.78849572	     -6.98468547	      1.85087467	     33.81184187	     33.81184187	     10.21501897	    -15.29618908	     12.71282870	     -8.63172781	      5.60496809	      4.63746016	     55.05715803	    -21.28148154	      0.62379254	    107.95889344	     44.38695306	      0.00000000	      0.00000000	     15.77322479	    -10.47362449	     16.21526168	     60.49339556	     45.62323867	      0.00000000	      0.00000000
      3.70278571	     -4.97893098	     -4.17657492	      6.23070291	      0.80326352	      0.93098498	      0.46299230	      7.51385732	      3.22907221	    -17.82517037	     11.26719394	     11.26719394	     10.80089753	     -0.70636527	     -6.66022451	     33.63203414	     -6.43524718	      2.00208430	     30.30626167	     30.30626167	      9.47481416	    -13.86579241	     10.95681440	     -8.61303891	      5.50355785	      4.24196711	     57.51825624	    -20.70619760	      1.30437266	    106.96021586	     44.43438070	      0.00000000	      0.00000000	     15.56603910	    -10.35664415	     16.93675553	     56.51401920	     45.55385155	      0.00000000	      0.00000000
      3.71485714	     -5.10838548	     -4.14754499	      6.51628800	      0.80244380	      0.93025665	      0.46237650	      7.26858869	      3.17762051	    -17.87622536	     11.43270832	     11.43270832	     11.26576358	     -0.97157526	     -6.73268121	     33.59301107	     -5.97455322	      2.04787493	     27.21736041	     27.21736041	      9.42717338	    -12.05033616	     10.90464280	     -8.66780464	      5.36239365	      4.28176947	     59.22736772	    -20.78796753	      1.09670300	    107.21138930	     44.44762591	      0.00000000	      0.00000000	     14.65283576	    -10.41996867	     17.15612613	     55.60639299	     45.52662039	      0.00000000	      0.00000000
      3.72692857	     -5.23867727	     -4.24958830	      6.79568269	      0.80180744	      0.92932486	      0.46175770	      7.05892516	      3.26349369	    -17.94058211	     11.67628010	     11.67628010	     11.87481679	     -1.18463368	     -6.41086471	     33.57447857	     -5.71292763	      1.86862433	     24.40954330	     24.40954330	      9.08493777	    -10.05861962	      9.83100395	     -8.57490745	      5.39936483	      4.08271255	     61.00873925	    -20.45667948	      1.26633866	    106.51201916	     44.49828824	      0.00000000	      0.00000000	     14.07541996	    -10.39449071	     17.56344351	     53.43755657	     45.49583241	      0.00000000	      0.00000000
